<?xml version="1.0" encoding="UTF-8"?>
<svg id="Calque_2" data-name="Calque 2" xmlns="http://www.w3.org/2000/svg" viewBox="0 0 119.09 48.38">
  <g id="Calque_1-2" data-name="Calque 1">
    <path d="m26.86,0l.29,1.87L4.68,30.67l1.01-2.45h22.9c1.97,0,3.22-.24,3.74-.72.53-.48.89-1.32,1.08-2.52h1.51c0,2.88.02,5.12.07,6.73.05,1.61.12,3.04.22,4.28-.34-.1-.96-.16-1.87-.18-.91-.02-1.99-.06-3.24-.11-1.25-.05-2.51-.07-3.78-.07H0v-1.51L26.86,0Zm1.15,0v48.38h-8.35V10.15L26.86,0h1.15Z"/>
    <path d="m61.06,0c3.84,0,7.22.78,10.15,2.34,2.93,1.56,5.23,3.77,6.91,6.62,1.68,2.86,2.52,6.2,2.52,10.04s-.85,7.28-2.56,10.33c-1.7,3.05-4.08,5.46-7.13,7.24-3.05,1.77-6.61,2.66-10.69,2.66-3.74,0-7.09-.79-10.04-2.38-2.95-1.58-5.28-3.8-6.98-6.66-1.7-2.86-2.56-6.2-2.56-10.04s.84-7.21,2.52-10.26c1.68-3.05,4.06-5.46,7.13-7.24,3.07-1.78,6.65-2.66,10.73-2.66Zm-.65,1.3c-2.59,0-4.72,1.65-6.37,4.93-1.66,3.29-2.48,7.86-2.48,13.72,0,4.32.43,7.8,1.3,10.44.86,2.64,2,4.56,3.42,5.76,1.42,1.2,2.96,1.8,4.64,1.8,2.59,0,4.72-1.66,6.37-4.97,1.66-3.31,2.48-7.9,2.48-13.75,0-4.32-.43-7.8-1.3-10.44-.86-2.64-2-4.55-3.42-5.72-1.42-1.18-2.96-1.76-4.64-1.76Z"/>
    <path d="m110.74,0l.29,1.87-22.46,28.8,1.01-2.45h22.9c1.97,0,3.22-.24,3.74-.72.53-.48.89-1.32,1.08-2.52h1.51c0,2.88.02,5.12.07,6.73.05,1.61.12,3.04.22,4.28-.34-.1-.96-.16-1.87-.18-.91-.02-1.99-.06-3.24-.11-1.25-.05-2.51-.07-3.78-.07h-26.32v-1.51L110.74,0Zm1.15,0v48.38h-8.35V10.15l7.2-10.15h1.15Z"/>
  </g>
</svg>