<?xml version="1.0" encoding="UTF-8"?>
<svg id="Calque_2" data-name="Calque 2" xmlns="http://www.w3.org/2000/svg" viewBox="0 0 428.47 218.41">
  <defs>
    <style>
      .cls-1 {
        fill: none;
        stroke: #000;
        stroke-miterlimit: 10;
        stroke-width: 4px;
      }
    </style>
  </defs>
  <g id="Calque_1-2" data-name="Calque 1">
    <g>
      <path class="cls-1" d="m135.93,195.93c-8.35-.87-18.4-1.92-29.41-8.55-14.03-8.45-20.95-23.51-34.79-53.65-4.17-9.09-7.81-17.67-7.2-28.7.35-6.28,1.58-12.23,3.72-17.85,4.05-10.61,10.15-17.23,13.18-20.45,16.43-17.45,40.06-21.67,46.8-22.67.73,18.02,2.66,32.42,4.2,41.87,4.76,29.34,7.82,48.15,16.6,72,6.21,16.87,12.19,27.83,7,34.1-3.91,4.73-12.17,4.73-20.1,3.9Z"/>
      <path class="cls-1" d="m272.44,192.03c-5.19-6.27.79-17.23,7-34.1,8.78-23.85,11.84-42.66,16.6-72,1.54-9.46,3.46-23.85,4.2-41.87,6.74,1,30.37,5.22,46.8,22.67,3.03,3.22,9.13,9.84,13.18,20.45,2.14,5.62,3.37,11.57,3.72,17.85.61,11.03-3.03,19.61-7.2,28.7-13.84,30.14-20.75,45.21-34.79,53.65-11.01,6.63-21.07,7.68-29.41,8.55-7.93.83-16.19.83-20.1-3.9Z"/>
      <path class="cls-1" d="m25.28,216.22c-8.62-.6-12.08-2.43-14.31-4.15-13.09-10.1-8.34-35.58-7.14-41.99,5.94-31.94,31.8-51.17,41.96-57.92.69,3.92,1.91,9.86,4.08,16.9,1.89,6.12,6.33,17.14,17.82,38.4,11.4,21.09,15.1,21.03,14.2,26.47-2.59,15.69-34.57,23.83-56.6,22.3Z"/>
      <path class="cls-1" d="m346.59,193.93c-.9-5.44,2.8-5.38,14.2-26.47,11.49-21.25,15.92-32.28,17.82-38.4,2.18-7.04,3.4-12.98,4.08-16.9,10.16,6.74,36.01,25.98,41.96,57.92,1.19,6.42,5.95,31.89-7.14,41.99-2.24,1.73-5.69,3.55-14.31,4.15-22.03,1.53-54.01-6.6-56.6-22.3Z"/>
      <path class="cls-1" d="m212.69,2c11.2,0,22.4-.2,33.5,2.2,20.5,4.5,36,18.2,40.7,37.4,2.2,8.9.8,17.4-1.3,26-8,32.9-15.93,65.8-23.8,98.7-2.1,8.8-4.5,17.4-11.2,24.4-8.21,8.63-19.33,13.9-31.2,14.8-10.8,1-21-.6-30.4-5.7-11.1-6-18.6-14.5-21.4-26.2-5.5-23.5-10.97-47-16.4-70.5-3.3-14.2-6.8-28.4-9.8-42.6-4.4-20.6,7.1-42.1,27.6-51.7,9.82-4.5,20.5-6.79,31.3-6.7,4.12-.1,8.3-.1,12.4-.1Z"/>
    </g>
  </g>
</svg>